<svg width="20" height="20" viewBox="0 0 20 20" fill="none" xmlns="http://www.w3.org/2000/svg">
<path fill-rule="evenodd" clip-rule="evenodd" d="M17.5 18.3373L17.5021 3.33317H15V1.6665H13.3333V3.33317H6.66666V1.6665H5V3.33317H2.49785L2.5 18.3373C2.5 18.3373 3.24523 18.3332 4.16452 18.3332H15.8355C16.7576 18.3332 17.5 18.3373 17.5 18.3373ZM15.8333 16.6665H4.16666V4.99984H15.8333V16.6665ZM5.83333 9.99984H7.5V11.6665H5.83333V9.99984ZM10.8333 9.99984H9.16666V11.6665H10.8333V9.99984ZM12.5 9.99984H14.1667V11.6665H12.5V9.99984ZM7.5 14.9998V13.3332H5.83333V14.9998H7.5ZM9.16666 13.3332H10.8333V14.9998H9.16666V13.3332ZM14.1667 14.9998V13.3332H12.5V14.9998H14.1667Z" fill="white"/>
</svg>
