<svg width="800" height="64" viewBox="0 0 800 64" fill="none" xmlns="http://www.w3.org/2000/svg">
<path d="M18.8081 26.2087C26.1401 22.7021 31.8782 16.7514 35.1722 9.31309C33.047 7.08159 30.2842 5.48767 27.3089 4.53131L25.715 4C25.6088 4.21252 25.5025 4.53132 25.5025 4.74385C22.9523 11.9697 17.7455 17.814 10.7323 21.1082C5.84433 23.4459 2.23147 27.6964 0.531302 32.797L0 34.3909C0.212521 34.4972 0.531307 34.6034 0.743828 34.6034C2.76278 35.3472 4.78172 36.3036 6.69441 37.4725C9.35093 32.6907 13.6013 28.6527 18.8081 26.2087Z" fill="#664914"/>
<path opacity="0.6" d="M49.6231 26.6338C45.6914 32.5845 40.2722 37.3662 33.5778 40.5541C28.1585 43.1044 24.0143 47.8862 22.1016 53.6243L21.5703 55.4307C23.5893 57.2372 26.0332 58.6186 28.6898 59.4687L30.2837 60C30.3899 59.7875 30.4962 59.4687 30.4962 59.2562C33.0464 52.0304 38.2532 46.186 45.2664 42.8919C50.1544 40.5541 53.8735 36.3036 55.4674 31.2031L55.9987 29.6091C53.7672 28.9716 51.642 27.9089 49.6231 26.6338Z" fill="#664914"/>
<path opacity="0.8" d="M17.3203 49.9045C19.9768 43.5288 24.8648 38.322 31.1341 35.3466C36.8722 32.5838 41.6539 28.3333 44.948 23.1265C42.504 20.7887 40.4851 18.1322 38.9974 14.9443C35.0658 22.1701 28.9027 28.0146 21.3582 31.6275C17.0015 33.6464 13.4949 37.1531 11.3697 41.4036C13.7074 43.6351 15.6201 46.3978 17.1078 49.4794C17.1078 49.4794 17.214 49.692 17.3203 49.9045Z" fill="#664914"/>
<path d="M69.3333 20.417V19.292H81.0833V20.417H77.75V34.7503C77.75 36.1948 77.8611 37.4587 78.0833 38.542C78.7778 41.8475 80.6944 43.5003 83.8333 43.5003C88.3333 43.4725 90.5972 40.5698 90.625 34.792V20.417H87.2916V19.292H95.4583V20.417H92.125V34.542C92.125 36.4309 91.9166 38.0559 91.5 39.417C90.3611 42.9448 87.5139 44.7087 82.9583 44.7087C76.1528 44.6809 72.7222 41.4587 72.6666 35.042V20.417H69.3333Z" fill="#664914"/>
<path d="M117.875 24.917C117.875 25.5003 117.764 26.0975 117.542 26.7087C116.819 28.5975 115.292 29.9309 112.958 30.7087C113.847 30.8475 114.667 31.0559 115.417 31.3337C118.222 32.3614 119.625 34.2642 119.625 37.042C119.625 38.4587 119.194 39.7503 118.333 40.917C116.667 43.167 113.972 44.292 110.25 44.292H96.75V43.167H100.083V20.417H96.75V19.292H109.708C111.431 19.292 112.931 19.5281 114.208 20.0003C116.653 20.917 117.875 22.5559 117.875 24.917ZM107.792 20.417H105.208V30.167H108C108.778 30.167 109.472 30.0281 110.083 29.7503C111.722 29.0281 112.542 27.5281 112.542 25.2503C112.514 22.0837 110.931 20.4725 107.792 20.417ZM108.958 31.3337H105.208V43.167H108.625C109.597 43.167 110.458 42.9864 111.208 42.6253C113.097 41.6531 114.042 39.7364 114.042 36.8753C114.042 35.9864 113.903 35.1809 113.625 34.4587C112.847 32.3753 111.292 31.3337 108.958 31.3337Z" fill="#664914"/>
<path d="M121.375 20.417V19.292H133.125V20.417H129.792V34.7503C129.792 36.1948 129.903 37.4587 130.125 38.542C130.819 41.8475 132.736 43.5003 135.875 43.5003C140.375 43.4725 142.639 40.5698 142.667 34.792V20.417H139.333V19.292H147.5V20.417H144.167V34.542C144.167 36.4309 143.958 38.0559 143.542 39.417C142.403 42.9448 139.556 44.7087 135 44.7087C128.194 44.6809 124.764 41.4587 124.708 35.042V20.417H121.375Z" fill="#664914"/>
<path d="M166.708 20.417V19.292H175.167V20.417H171.833V44.0837L169.625 44.5003L153.458 25.2087V43.167H155.875C156.458 43.2225 156.833 43.5975 157 44.292H148.417V43.167H151.75V20.417H148.417V19.292H155.042L170.125 37.3337V20.417H166.708Z" fill="#664914"/>
<path d="M193.625 44.292H180.625V43.167H184.583V20.417H183.375C182.819 20.417 182.319 20.4864 181.875 20.6253C180.403 21.0698 179.333 22.3753 178.667 24.542L177.583 28.0003H176.333L176.542 19.292H197.792L197.958 28.0003H196.75L195.667 24.542C195.556 24.1809 195.431 23.8337 195.292 23.5003C194.431 21.4448 192.986 20.417 190.958 20.417H189.708V43.167H192.542C193.042 43.2225 193.403 43.5975 193.625 44.292Z" fill="#664914"/>
<path d="M199.292 20.417V19.292H211.042V20.417H207.708V34.7503C207.708 36.1948 207.819 37.4587 208.042 38.542C208.736 41.8475 210.653 43.5003 213.792 43.5003C218.292 43.4725 220.556 40.5698 220.583 34.792V20.417H217.25V19.292H225.417V20.417H222.083V34.542C222.083 36.4309 221.875 38.0559 221.458 39.417C220.319 42.9448 217.472 44.7087 212.917 44.7087C206.111 44.6809 202.681 41.4587 202.625 35.042V20.417H199.292Z" fill="#664914"/>
<path d="M246.625 44.292H234.833V43.167H238.167V20.417H234.833V19.292H246.625V20.417H243.292V30.792H254.583V20.417H251.25V19.292H263V20.417H259.708V43.167H261.917C262.417 43.2225 262.778 43.5975 263 44.292H251.25V43.167H254.583V32.042H243.292V43.167H245.5C246.083 43.2225 246.458 43.5975 246.625 44.292Z" fill="#664914"/>
<path d="M290.625 44.292H280.167V43.167H283.042L279.917 35.167H271.5L268.458 43.167H270.667C270.833 43.167 270.986 43.1809 271.125 43.2087C271.514 43.292 271.708 43.6531 271.708 44.292H264.125V43.167H266.792L275.958 19.292H278.542L288.292 43.167H289.583C289.778 43.167 289.931 43.1809 290.042 43.2087C290.431 43.292 290.625 43.6531 290.625 44.292ZM279.417 33.917L275.667 24.167L271.958 33.917H279.417Z" fill="#664914"/>
<path d="M304.375 44.5003H303.625C303.014 44.5003 302.556 44.3892 302.25 44.167C301.861 43.8892 301.333 42.9031 300.667 41.2087L292.542 20.417H290.292V19.292H300.958V20.417H297.667L304.875 38.7087L311.417 20.417H308.083V19.292H315.125V20.417H313.042L304.375 44.5003Z" fill="#664914"/>
<path d="M336.708 27.1253H335.625L334.833 24.542C334.75 24.2642 334.653 24.0003 334.542 23.7503C333.653 21.5281 332.139 20.417 330 20.417H324.667V30.792H332.875V32.042H324.667V43.167H330C330.556 43.167 331.069 43.0975 331.542 42.9587C332.986 42.5142 334.069 41.2087 334.792 39.042L335.625 36.4587H336.708L336.542 44.292H316.208V43.167H319.542V20.417H316.208V19.292H336.542L336.708 27.1253Z" fill="#664914"/>
<path d="M357.667 20.417V19.292H366.125V20.417H362.792V44.0837L360.583 44.5003L344.417 25.2087V43.167H346.833C347.417 43.2225 347.792 43.5975 347.958 44.292H339.375V43.167H342.708V20.417H339.375V19.292H346L361.083 37.3337V20.417H357.667Z" fill="#664914"/>
</svg>
