<svg width="275" height="48" viewBox="0 0 275 48" fill="none" xmlns="http://www.w3.org/2000/svg">
<path d="M14.1061 19.6565C19.6051 17.0266 23.9086 12.5636 26.3792 6.98482C24.7853 5.3112 22.7132 4.11575 20.4817 3.39848L19.2863 3C19.2066 3.15939 19.1269 3.39849 19.1269 3.55788C17.2142 8.97724 13.3091 13.3605 8.04924 15.8311C4.38325 17.5844 1.6736 20.7723 0.398477 24.5977L0 25.7932C0.159391 25.8729 0.39848 25.9525 0.557871 25.9525C2.07208 26.5104 3.58629 27.2277 5.02081 28.1044C7.01319 24.518 10.201 21.4896 14.1061 19.6565Z" fill="white"/>
<path opacity="0.6" d="M37.2173 19.9756C34.2686 24.4386 30.2041 28.0249 25.1833 30.4158C21.1188 32.3285 18.0107 35.9149 16.5762 40.2185L16.1777 41.5733C17.6919 42.9281 19.5249 43.9642 21.5173 44.6018L22.7128 45.0003C22.7924 44.8409 22.8721 44.6018 22.8721 44.4424C24.7848 39.023 28.6899 34.6397 33.9498 32.1691C37.6158 30.4158 40.4051 27.228 41.6005 23.4025L41.999 22.2071C40.3254 21.7289 38.7315 20.9319 37.2173 19.9756Z" fill="white"/>
<path opacity="0.8" d="M12.9902 37.4284C14.9825 32.6467 18.6485 28.7415 23.3506 26.51C27.6541 24.4379 31.2404 21.2501 33.711 17.3449C31.878 15.5916 30.3637 13.5992 29.248 11.2083C26.2993 16.6277 21.677 21.011 16.0186 23.7207C12.7511 25.2349 10.1211 27.8649 8.52722 31.0527C10.2805 32.7264 11.715 34.7984 12.8308 37.1096C12.8308 37.1096 12.9105 37.269 12.9902 37.4284Z" fill="white"/>
<path d="M52 15.3125V14.4688H60.8125V15.3125H58.3125V26.0625C58.3125 27.1458 58.3958 28.0938 58.5625 28.9062C59.0833 31.3854 60.5208 32.625 62.875 32.625C66.25 32.6042 67.9479 30.4271 67.9688 26.0938V15.3125H65.4688V14.4688H71.5938V15.3125H69.0938V25.9062C69.0938 27.3229 68.9375 28.5417 68.625 29.5625C67.7708 32.2083 65.6354 33.5312 62.2188 33.5312C57.1146 33.5104 54.5417 31.0938 54.5 26.2812V15.3125H52Z" fill="white"/>
<path d="M88.4062 18.6875C88.4062 19.125 88.3229 19.5729 88.1562 20.0312C87.6146 21.4479 86.4688 22.4479 84.7188 23.0312C85.3854 23.1354 86 23.2917 86.5625 23.5C88.6667 24.2708 89.7188 25.6979 89.7188 27.7812C89.7188 28.8438 89.3958 29.8125 88.75 30.6875C87.5 32.375 85.4792 33.2188 82.6875 33.2188H72.5625V32.375H75.0625V15.3125H72.5625V14.4688H82.2812C83.5729 14.4688 84.6979 14.6458 85.6562 15C87.4896 15.6875 88.4062 16.9167 88.4062 18.6875ZM80.8438 15.3125H78.9062V22.625H81C81.5833 22.625 82.1042 22.5208 82.5625 22.3125C83.7917 21.7708 84.4062 20.6458 84.4062 18.9375C84.3854 16.5625 83.1979 15.3542 80.8438 15.3125ZM81.7188 23.5H78.9062V32.375H81.4688C82.1979 32.375 82.8438 32.2396 83.4062 31.9688C84.8229 31.2396 85.5312 29.8021 85.5312 27.6562C85.5312 26.9896 85.4271 26.3854 85.2188 25.8438C84.6354 24.2812 83.4688 23.5 81.7188 23.5Z" fill="white"/>
<path d="M91.0312 15.3125V14.4688H99.8438V15.3125H97.3438V26.0625C97.3438 27.1458 97.4271 28.0938 97.5938 28.9062C98.1146 31.3854 99.5521 32.625 101.906 32.625C105.281 32.6042 106.979 30.4271 107 26.0938V15.3125H104.5V14.4688H110.625V15.3125H108.125V25.9062C108.125 27.3229 107.969 28.5417 107.656 29.5625C106.802 32.2083 104.667 33.5312 101.25 33.5312C96.1458 33.5104 93.5729 31.0938 93.5312 26.2812V15.3125H91.0312Z" fill="white"/>
<path d="M125.031 15.3125V14.4688H131.375V15.3125H128.875V33.0625L127.219 33.375L115.094 18.9062V32.375H116.906C117.344 32.4167 117.625 32.6979 117.75 33.2188H111.312V32.375H113.812V15.3125H111.312V14.4688H116.281L127.594 28V15.3125H125.031Z" fill="white"/>
<path d="M145.219 33.2188H135.469V32.375H138.438V15.3125H137.531C137.115 15.3125 136.74 15.3646 136.406 15.4688C135.302 15.8021 134.5 16.7812 134 18.4062L133.188 21H132.25L132.406 14.4688H148.344L148.469 21H147.562L146.75 18.4062C146.667 18.1354 146.573 17.875 146.469 17.625C145.823 16.0833 144.74 15.3125 143.219 15.3125H142.281V32.375H144.406C144.781 32.4167 145.052 32.6979 145.219 33.2188Z" fill="white"/>
<path d="M149.469 15.3125V14.4688H158.281V15.3125H155.781V26.0625C155.781 27.1458 155.865 28.0938 156.031 28.9062C156.552 31.3854 157.99 32.625 160.344 32.625C163.719 32.6042 165.417 30.4271 165.438 26.0938V15.3125H162.938V14.4688H169.062V15.3125H166.562V25.9062C166.562 27.3229 166.406 28.5417 166.094 29.5625C165.24 32.2083 163.104 33.5312 159.688 33.5312C154.583 33.5104 152.01 31.0938 151.969 26.2812V15.3125H149.469Z" fill="white"/>
<path d="M184.969 33.2188H176.125V32.375H178.625V15.3125H176.125V14.4688H184.969V15.3125H182.469V23.0938H190.938V15.3125H188.438V14.4688H197.25V15.3125H194.781V32.375H196.438C196.812 32.4167 197.083 32.6979 197.25 33.2188H188.438V32.375H190.938V24.0312H182.469V32.375H184.125C184.562 32.4167 184.844 32.6979 184.969 33.2188Z" fill="white"/>
<path d="M217.969 33.2188H210.125V32.375H212.281L209.938 26.375H203.625L201.344 32.375H203C203.125 32.375 203.24 32.3854 203.344 32.4062C203.635 32.4688 203.781 32.7396 203.781 33.2188H198.094V32.375H200.094L206.969 14.4688H208.906L216.219 32.375H217.188C217.333 32.375 217.448 32.3854 217.531 32.4062C217.823 32.4688 217.969 32.7396 217.969 33.2188ZM209.562 25.4375L206.75 18.125L203.969 25.4375H209.562Z" fill="white"/>
<path d="M228.281 33.375H227.719C227.26 33.375 226.917 33.2917 226.688 33.125C226.396 32.9167 226 32.1771 225.5 30.9062L219.406 15.3125H217.719V14.4688H225.719V15.3125H223.25L228.656 29.0312L233.562 15.3125H231.062V14.4688H236.344V15.3125H234.781L228.281 33.375Z" fill="white"/>
<path d="M252.531 20.3438H251.719L251.125 18.4062C251.062 18.1979 250.99 18 250.906 17.8125C250.24 16.1458 249.104 15.3125 247.5 15.3125H243.5V23.0938H249.656V24.0312H243.5V32.375H247.5C247.917 32.375 248.302 32.3229 248.656 32.2188C249.74 31.8854 250.552 30.9062 251.094 29.2812L251.719 27.3438H252.531L252.406 33.2188H237.156V32.375H239.656V15.3125H237.156V14.4688H252.406L252.531 20.3438Z" fill="white"/>
<path d="M268.25 15.3125V14.4688H274.594V15.3125H272.094V33.0625L270.438 33.375L258.312 18.9062V32.375H260.125C260.562 32.4167 260.844 32.6979 260.969 33.2188H254.531V32.375H257.031V15.3125H254.531V14.4688H259.5L270.812 28V15.3125H268.25Z" fill="white"/>
</svg>
