<svg width="64" height="64" viewBox="0 0 64 64" fill="none" xmlns="http://www.w3.org/2000/svg">
<path d="M31.999 3.26953C32.7692 8.08327 33.5533 12.0169 34.5576 15.2559C35.7777 19.1907 37.33 22.1337 39.5967 24.4004C41.8632 26.6669 44.8061 28.2188 48.7412 29.4395C51.98 30.444 55.914 31.2282 60.7275 31.999C55.9134 32.7692 51.9794 33.5533 48.7402 34.5576C44.8054 35.7777 41.8623 37.33 39.5957 39.5967C37.3291 41.8633 35.7763 44.806 34.5557 48.7412C33.551 51.9803 32.767 55.9145 31.9961 60.7285C31.226 55.9146 30.4427 51.9803 29.4385 48.7412C28.2185 44.8062 26.6666 41.8632 24.4004 39.5967C22.134 37.33 19.1907 35.7777 15.2559 34.5576C12.017 33.5533 8.08329 32.7692 3.26953 31.999C8.08326 31.2281 12.017 30.4442 15.2559 29.4395C19.1907 28.2188 22.1338 26.667 24.4004 24.4004C26.667 22.1338 28.2188 19.1907 29.4395 15.2559C30.4442 12.017 31.2281 8.08326 31.999 3.26953Z" stroke="#D7D3D0"/>
</svg>
